<svg viewBox="0 0 64 64" xmlns="http://www.w3.org/2000/svg">
  <defs>
    <linearGradient id="g" x1="0" y1="0" x2="1" y2="1">
      <stop offset="0" stop-color="#58B4FF"/><stop offset="1" stop-color="#0E5FE6"/>
    </linearGradient>
  </defs>
  <rect width="64" height="64" rx="14" fill="#061525"/>
  <path d="M8 10h4M18 10h36v44H8V10" fill="none" stroke="url(#g)" stroke-width="3"/>
  <path d="M15 20v24h7l6-6V26l-6-6h-7zm5 5h2l2 2v10l-2 2h-2V25zm12-5h8l6 6v4h-5v-2l-3-3h-1l-3 3v8l3 3h4v-3h5v5l-5 5h-9l-5-5V25l5-5z" fill="url(#g)"/>
</svg>
